<svg id="Group" xmlns="http://www.w3.org/2000/svg" viewBox="0 0 200 57.179">
  <defs>
    <style>
      .cls-1 {
        fill: #c2c2c2;
      }
    </style>
  </defs>
  <path id="Fill_1" data-name="Fill 1" class="cls-1" d="M17.615,32.459H0L6.845,0H23.554a10.028,10.028,0,0,1,6.391,1.814A6.015,6.015,0,0,1,32.21,6.754a11.23,11.23,0,0,1-.252,2.117A11.154,11.154,0,0,1,30.1,13.155a9.011,9.011,0,0,1-3.221,2.722,5.031,5.031,0,0,1,3.523,5.04,10.925,10.925,0,0,1-.251,2.016,11.632,11.632,0,0,1-4.14,7.145A13.589,13.589,0,0,1,17.615,32.459ZM10.971,18.8,9.311,26.663h7.4a5.78,5.78,0,0,0,3.6-.907,5.543,5.543,0,0,0,1.635-3.226,4.824,4.824,0,0,0,.151-1.159,2.153,2.153,0,0,0-.982-1.94,5.8,5.8,0,0,0-3.045-.63ZM13.739,5.846l-1.56,7.359h6.593a5.156,5.156,0,0,0,3.183-.907,4.507,4.507,0,0,0,1.6-2.722,5.989,5.989,0,0,0,.15-1.211,2.186,2.186,0,0,0-.88-1.89,5.13,5.13,0,0,0-2.894-.63Z" transform="translate(44.944 12.235)"/>
  <path id="Fill_2" data-name="Fill 2" class="cls-1" d="M8.067,33.708H0l3.757-17.86H.25L2.2,9.86H13.077L8.067,33.707Zm5.862-27.62H5.161L6.463,0h8.768l-1.3,6.087Z" transform="translate(79.9 10.737)"/>
  <path id="Fill_3" data-name="Fill 3" class="cls-1" d="M2.726,29.852A5.784,5.784,0,0,1,.909,25.279a12.932,12.932,0,0,1,.252-2.312l2.07-9.7H0L1.313,7.137H4.544L5.6,2.161,14.186,0,12.672,7.137h5.805l-1.666,6.131H11.359L9.44,22.414a11.4,11.4,0,0,0-.2,1.357A1.42,1.42,0,0,0,9.87,25.1a4.58,4.58,0,0,0,2.2.377,11.153,11.153,0,0,0,3.231-.5l-1.161,5.478a16.938,16.938,0,0,1-6.159,1.005,7.68,7.68,0,0,1-5.25-1.608" transform="translate(94.382 13.483)"/>
  <path id="Fill_4" data-name="Fill 4" class="cls-1" d="M8.115,32.46H0L6.855,0H23.086a9.516,9.516,0,0,1,6.628,2.268,7.929,7.929,0,0,1,2.5,6.149,13.623,13.623,0,0,1-.3,2.722,12.273,12.273,0,0,1-2.848,5.72,13.487,13.487,0,0,1-5.318,3.7,4.843,4.843,0,0,1,.807,1.21A9.222,9.222,0,0,1,25.1,23.69l2.016,8.768H18.651l-1.916-8.267a2.6,2.6,0,0,0-.832-1.588,3.256,3.256,0,0,0-1.89-.428h-3.73L8.115,32.459ZM13.66,6.25l-2.066,9.678h6a6.346,6.346,0,0,0,3.983-1.21,5.906,5.906,0,0,0,2.066-3.578,12.413,12.413,0,0,0,.252-2.067A2.546,2.546,0,0,0,23.01,6.93a5.049,5.049,0,0,0-3-.68Z" transform="translate(110.612 12.235)"/>
  <path id="Fill_5" data-name="Fill 5" class="cls-1" d="M8.693,24.969a9.441,9.441,0,0,1-6.444-2A7.561,7.561,0,0,1,0,17.033a19.761,19.761,0,0,1,.4-3.588,18.626,18.626,0,0,1,5.1-9.806A13.365,13.365,0,0,1,15.112,0a9.753,9.753,0,0,1,3.236.454A8.865,8.865,0,0,1,20.823,1.87L21.076.506h8.137L24.16,24.463H17.134l-.05-2.021A14.124,14.124,0,0,1,8.693,24.969Zm7.278-19A6.306,6.306,0,0,0,11.3,7.783a11.287,11.287,0,0,0-2.6,5.662,11.238,11.238,0,0,0-.3,2.375,2.93,2.93,0,0,0,.986,2.5,5.49,5.49,0,0,0,3.209.733,7.8,7.8,0,0,0,4.954-1.82l2.021-9.6A3.866,3.866,0,0,0,15.971,5.964Z" transform="translate(140.075 20.225)"/>
  <path id="Fill_6" data-name="Fill 6" class="cls-1" d="M8.066,33.708H0l3.757-17.86H.25L2.2,9.86H13.077L8.066,33.707Zm5.863-27.62H5.161L6.463,0h8.768l-1.3,6.087Z" transform="translate(172.035 10.737)"/>
  <path id="Fill_7" data-name="Fill 7" class="cls-1" d="M1.519,33.3A4.327,4.327,0,0,1,0,29.621a10.173,10.173,0,0,1,.253-2.368L6.077,0h8.155L8.559,26.447a6.506,6.506,0,0,0-.1.756,1.1,1.1,0,0,0,.405.983,2.165,2.165,0,0,0,1.216.277,8.188,8.188,0,0,0,2.481-.353L11.4,33.6a15.861,15.861,0,0,1-2.507.655,17.1,17.1,0,0,1-2.811.2A7.461,7.461,0,0,1,1.519,33.3" transform="translate(185.768 10.737)"/>
  <path id="Fill_8" data-name="Fill 8" class="cls-1" d="M10.3,44.944,19.725,0H9.428L0,44.944H10.3" transform="translate(0 12.235)"/>
  <path id="Fill_9" data-name="Fill 9" class="cls-1" d="M10.3,44.944,19.725,0H9.428L0,44.944H10.3" transform="translate(17.478)"/>
</svg>
