<svg id="Group" xmlns="http://www.w3.org/2000/svg" viewBox="0 0 450 128.652">
  <defs>
    <style>
      .cls-1 {
        fill: #fff;
      }
    </style>
  </defs>
  <path id="Fill_1" data-name="Fill 1" class="cls-1" d="M39.633,73.034H0L15.4,0H53a30.369,30.369,0,0,1,8.237,1.021,17.289,17.289,0,0,1,6.143,3.062A13.227,13.227,0,0,1,71.2,8.9,15.007,15.007,0,0,1,72.472,15.2a25.207,25.207,0,0,1-.566,4.763A25.07,25.07,0,0,1,67.716,29.6a20.264,20.264,0,0,1-7.248,6.124,12.532,12.532,0,0,1,5.945,4.367A11.925,11.925,0,0,1,68.4,47.064a24.539,24.539,0,0,1-.566,4.535,31.8,31.8,0,0,1-3.461,9.378,22.524,22.524,0,0,1-5.853,6.7,24.653,24.653,0,0,1-8.245,4.019A39.145,39.145,0,0,1,39.633,73.034ZM24.686,42.3h0L20.949,59.992H37.595c3.681,0,6.405-.687,8.1-2.041s2.929-3.8,3.68-7.259a10.8,10.8,0,0,0,.339-2.607A4.849,4.849,0,0,0,47.5,43.717c-1.467-.94-3.772-1.417-6.852-1.417H24.686Zm6.228-29.146L27.4,29.712H42.238A11.6,11.6,0,0,0,49.4,27.67,10.138,10.138,0,0,0,53,21.547a13.429,13.429,0,0,0,.339-2.722,4.91,4.91,0,0,0-1.982-4.252c-1.316-.941-3.507-1.417-6.512-1.417Z" transform="translate(101.124 27.528)"/>
  <path id="Fill_2" data-name="Fill 2" class="cls-1" d="M18.149,75.844H0L8.455,35.657H.563l4.4-13.47H29.423L18.149,75.843ZM31.339,13.7H11.611L14.541,0H34.269l-2.93,13.7Z" transform="translate(179.775 24.157)"/>
  <path id="Fill_3" data-name="Fill 3" class="cls-1" d="M6.134,67.168Q2.045,63.55,2.045,56.877a29.1,29.1,0,0,1,.567-5.2L7.27,29.852H0l2.953-13.8h7.27L12.608,4.863,31.919,0,28.511,16.057H41.573l-3.748,13.8H25.557l-4.317,20.58a25.648,25.648,0,0,0-.454,3.053,3.2,3.2,0,0,0,1.42,3,10.306,10.306,0,0,0,4.941.848,25.094,25.094,0,0,0,7.27-1.131L31.8,68.524a38.109,38.109,0,0,1-13.857,2.262q-7.725,0-11.813-3.619" transform="translate(212.36 30.337)"/>
  <path id="Fill_4" data-name="Fill 4" class="cls-1" d="M18.259,73.035H0L15.424,0H51.943a25.907,25.907,0,0,1,8.379,1.276A18.6,18.6,0,0,1,66.858,5.1a16.406,16.406,0,0,1,4.21,6.011,20.757,20.757,0,0,1,1.4,7.825,30.612,30.612,0,0,1-.68,6.125,27.6,27.6,0,0,1-6.41,12.871A30.337,30.337,0,0,1,53.419,46.27a10.82,10.82,0,0,1,1.814,2.722A20.6,20.6,0,0,1,56.48,53.3l4.536,19.731H41.963l-4.31-18.6a5.857,5.857,0,0,0-1.871-3.572,7.324,7.324,0,0,0-4.253-.964H23.136L18.259,73.034ZM30.735,14.062,26.086,35.836h13.5a14.279,14.279,0,0,0,8.96-2.722,13.291,13.291,0,0,0,4.649-8.051,28.1,28.1,0,0,0,.567-4.65,5.733,5.733,0,0,0-1.984-4.82c-1.319-1.016-3.589-1.531-6.748-1.531Z" transform="translate(248.876 27.528)"/>
  <path id="Fill_5" data-name="Fill 5" class="cls-1" d="M19.56,56.18a28.354,28.354,0,0,1-8.345-1.123,16.536,16.536,0,0,1-6.154-3.37,13.986,13.986,0,0,1-3.8-5.587A22,22,0,0,1,0,38.325a44.474,44.474,0,0,1,.91-8.074A49.141,49.141,0,0,1,5.259,17.8,36.846,36.846,0,0,1,12.4,8.188a28.47,28.47,0,0,1,9.665-6.141A33.606,33.606,0,0,1,34,0,21.93,21.93,0,0,1,41.28,1.023a19.97,19.97,0,0,1,5.573,3.184l.569-3.07H65.731l-11.372,53.9H38.551l-.112-4.549a29.633,29.633,0,0,1-8.7,4.266A35.3,35.3,0,0,1,19.56,56.18ZM35.935,13.419a14.179,14.179,0,0,0-10.518,4.094c-2.68,2.718-4.651,7-5.857,12.738a25.243,25.243,0,0,0-.682,5.344c0,2.643.746,4.537,2.218,5.63s3.9,1.65,7.222,1.65a17.549,17.549,0,0,0,11.145-4.1L44.01,17.172C42.5,14.682,39.782,13.419,35.935,13.419Z" transform="translate(315.169 45.506)"/>
  <path id="Fill_6" data-name="Fill 6" class="cls-1" d="M18.148,75.844H0L8.455,35.657H.563l4.4-13.47H29.423L18.149,75.843ZM31.339,13.7H11.611L14.542,0H34.269l-2.93,13.7Z" transform="translate(387.079 24.157)"/>
  <path id="Fill_7" data-name="Fill 7" class="cls-1" d="M3.418,74.92Q0,72.314,0,66.646a22.89,22.89,0,0,1,.569-5.327L13.673,0H32.022L19.257,59.506a14.639,14.639,0,0,0-.228,1.7,2.483,2.483,0,0,0,.911,2.211,4.871,4.871,0,0,0,2.735.623,18.423,18.423,0,0,0,5.583-.794L25.639,75.6A35.687,35.687,0,0,1,20,77.074a38.473,38.473,0,0,1-6.325.454q-6.837,0-10.255-2.608" transform="translate(417.978 24.157)"/>
  <path id="Fill_8" data-name="Fill 8" class="cls-1" d="M23.169,101.124,44.382,0H21.214L0,101.124H23.169" transform="translate(0 27.528)"/>
  <path id="Fill_9" data-name="Fill 9" class="cls-1" d="M23.169,101.124,44.382,0H21.213L0,101.124H23.169" transform="translate(39.326)"/>
</svg>
